<svg id="svg" version="1.1" xmlns="http://www.w3.org/2000/svg" xmlns:xlink="http://www.w3.org/1999/xlink" width="400" height="400" viewBox="0, 0, 400,400"><g id="svgg"><path id="path0" d="M147.656 52.604 C 137.404 53.616,120.667 60.282,106.750 68.897 C 87.383 80.886,69.923 104.993,67.389 123.242 C 66.188 131.889,63.382 136.725,51.483 150.662 C 34.712 170.305,33.112 174.910,29.468 214.063 C 28.740 221.883,28.615 256.917,29.304 259.991 C 30.786 266.604,42.979 282.539,50.000 287.039 C 52.483 288.631,57.515 292.387,65.820 298.850 C 69.043 301.358,72.119 303.635,72.656 303.910 C 73.193 304.185,77.588 306.994,82.422 310.153 C 112.023 329.497,136.369 340.033,160.383 343.893 C 175.700 346.355,182.928 346.774,218.359 347.255 C 247.803 347.654,248.658 347.619,254.688 345.764 C 259.723 344.214,262.584 343.822,272.240 343.361 C 282.337 342.878,281.276 343.117,297.461 337.693 C 304.766 335.246,313.203 332.599,316.211 331.811 C 323.715 329.846,324.615 329.371,328.666 325.229 C 335.776 317.958,343.536 309.065,345.909 305.467 C 347.256 303.425,350.051 299.924,352.120 297.687 C 356.968 292.444,358.644 289.261,358.902 284.805 C 359.313 277.696,352.328 266.334,342.276 257.762 C 336.994 253.257,337.714 251.910,347.803 247.429 C 354.150 244.610,360.201 240.763,362.027 238.386 C 362.609 237.627,363.832 236.146,364.743 235.095 C 368.008 231.330,368.967 227.350,367.470 223.778 C 366.670 221.868,360.733 212.707,358.975 210.670 C 356.623 207.946,344.141 190.287,344.141 189.684 C 344.141 188.886,345.525 187.896,351.953 184.101 C 358.676 180.132,359.097 179.799,358.872 178.624 C 358.734 177.900,358.875 177.734,359.630 177.734 C 360.808 177.734,361.936 175.955,362.301 173.519 C 362.693 170.909,364.246 166.827,366.791 161.719 C 371.269 152.732,371.738 150.115,370.645 140.234 C 367.696 113.579,365.917 110.290,350.000 102.081 C 337.240 95.499,329.710 92.111,317.188 87.314 C 310.504 84.754,286.905 73.568,280.199 69.782 C 262.057 59.537,241.164 59.792,218.359 70.536 C 208.172 75.336,207.484 75.155,189.801 63.020 C 177.395 54.506,163.407 51.049,147.656 52.604 M226.172 107.854 C 227.354 108.060,229.287 108.375,230.469 108.554 C 261.184 113.206,275.770 147.816,255.517 167.992 C 246.054 177.418,224.568 180.910,202.938 176.538 C 178.588 171.617,167.313 166.147,155.099 153.330 C 144.489 142.196,141.417 139.758,135.109 137.464 C 126.716 134.411,127.195 129.383,135.962 128.504 C 144.074 127.692,149.779 125.902,159.025 121.269 C 179.099 111.209,210.014 105.033,226.172 107.854 M331.836 112.697 C 358.200 116.135,367.188 124.244,366.685 144.141 C 366.122 166.399,357.920 172.361,329.077 171.478 C 302.721 170.672,284.069 165.611,274.473 156.665 C 271.161 153.577,270.625 152.057,269.715 143.164 C 269.385 139.941,268.769 135.264,268.347 132.769 C 266.456 121.610,267.701 119.760,279.252 116.576 C 295.177 112.185,316.082 110.643,331.836 112.697 M212.500 120.937 C 184.759 128.342,186.112 170.364,213.952 166.046 C 232.889 163.109,239.685 153.996,236.693 135.554 C 234.962 124.886,223.547 117.989,212.500 120.937 M320.079 120.893 C 308.399 123.434,300.308 140.611,305.571 151.693 C 308.560 157.987,313.145 160.971,320.508 161.416 C 323.086 161.572,326.479 161.812,328.048 161.949 C 333.417 162.421,336.327 160.362,339.699 153.708 C 344.678 143.885,345.144 140.279,342.182 134.491 C 336.380 123.153,329.407 118.863,320.079 120.893 M223.368 140.261 C 228.877 143.014,228.481 146.124,221.945 151.452 C 218.489 154.269,215.107 153.075,213.755 148.561 C 211.578 141.295,216.658 136.908,223.368 140.261 M332.226 142.157 C 334.523 143.450,335.144 146.781,333.411 148.514 C 330.461 151.464,321.989 151.051,321.830 147.949 C 321.559 142.646,327.356 139.416,332.226 142.157 M311.027 259.910 C 314.703 261.016,325.254 269.162,330.028 274.580 C 334.177 279.288,334.910 282.360,332.553 285.162 C 327.665 290.970,279.832 301.779,272.072 298.829 C 270.611 298.273,270.733 298.112,275.471 294.324 C 285.554 286.265,289.758 281.072,288.686 277.999 C 288.249 276.743,285.601 272.734,282.346 268.399 C 278.871 263.771,280.528 262.692,294.050 260.774 C 305.001 259.221,308.199 259.058,311.027 259.910 M192.773 273.789 C 205.450 277.152,214.079 280.832,227.658 288.664 C 235.403 293.132,235.971 293.535,235.861 294.486 C 235.238 299.853,174.219 281.324,174.219 275.769 C 174.219 272.965,185.237 271.789,192.773 273.789 " stroke="none" fill="#ffffff" fill-rule="evenodd"></path></g></svg>